<svg xmlns="http://www.w3.org/2000/svg" viewBox="0 0 240 240">
  <circle cx="120" cy="120" r="120" fill="#27A7E7"/>
  <path fill="#fff" d="M54 118.7c35.2-15.3 58.7-25.4 70.5-30.3 33.6-14 40.6-16.4 45.2-16.5 1 0 3.2.2 4.7 1.4 1.2 1 1.6 2.4 1.8 3.4.2 1 .4 3.3.2 5.1-2.2 20.7-10.5 70.8-14.8 94-1.8 9.8-5.3 13.1-8.7 13.4-7.3.7-12.8-4.8-19.9-9.5-11.1-7.3-17.4-11.8-28.2-18.9-12.5-8.2-4.4-12.7 2.7-20.1 1.9-2 35.3-32.4 35.9-35.1.1-.3.1-1.4-.6-2-.7-.6-1.8-.4-2.6-.2-1.2.3-20.2 12.8-57.2 37.5-5.4 3.7-10.4 5.5-14.9 5.4-5-.1-14.7-2.8-21.9-5.2-8.8-2.9-15.8-4.4-15.2-9.3.3-2.6 3.9-5.2 10.9-8z"/>
</svg>
